<svg width="894" height="774" xmlns="http://www.w3.org/2000/svg" xmlns:xlink="http://www.w3.org/1999/xlink" xml:space="preserve" overflow="hidden"><g transform="translate(-1677 -73)"><g><path d="M1884 195.5C1884 130.054 1955.86 77 2044.5 77 2133.14 77 2205 130.054 2205 195.5 2205 260.946 2133.14 314 2044.5 314 1955.86 314 1884 260.946 1884 195.5Z" fill="#BFBFBF" fill-rule="evenodd" fill-opacity="1"/><path d="M1884 610.5C1884 545.054 1955.86 492 2044.5 492 2133.14 492 2205 545.054 2205 610.5 2205 675.946 2133.14 729 2044.5 729 1955.86 729 1884 675.946 1884 610.5Z" fill="#BFBFBF" fill-rule="evenodd" fill-opacity="1"/><rect x="1884" y="187" width="321" height="424" fill="#BFBFBF" fill-opacity="1"/><path d="M1884 331 1679 284 1884 237Z" fill="#BFBFBF" fill-rule="evenodd" fill-opacity="1"/><path d="M2568.82 518.444C2545.19 665.355 2382.83 750.976 2206.18 709.684 2029.53 668.391 1905.48 515.822 1929.1 368.91 1931.51 353.915 1935.44 339.303 1940.85 325.23Z" fill="#BFBFBF" fill-rule="evenodd" fill-opacity="1"/><path d="M1984.93 667.083 1944.02 762.802" stroke="#BFBFBF" stroke-width="22.9167" stroke-linecap="butt" stroke-linejoin="miter" stroke-miterlimit="8" stroke-opacity="1" fill="#BFBFBF" fill-rule="evenodd" fill-opacity="1"/><path d="M0 0 61.4979 67.9719" stroke="#BFBFBF" stroke-width="22.9167" stroke-linecap="butt" stroke-linejoin="miter" stroke-miterlimit="8" stroke-opacity="1" fill="#BFBFBF" fill-rule="evenodd" fill-opacity="1" transform="matrix(-0.919529 -0.393022 -0.393022 0.919529 1948.59 752.112)"/><path d="M1946.3 757.457 1958.98 830.474" stroke="#BFBFBF" stroke-width="22.9167" stroke-linecap="butt" stroke-linejoin="miter" stroke-miterlimit="8" stroke-opacity="1" fill="#BFBFBF" fill-rule="evenodd" fill-opacity="1"/><path d="M2086.02 667.791 2098.05 771.189" stroke="#BFBFBF" stroke-width="22.9167" stroke-linecap="butt" stroke-linejoin="miter" stroke-miterlimit="8" stroke-opacity="1" fill="#BFBFBF" fill-rule="evenodd" fill-opacity="1"/><path d="M0 0 61.4979 67.9719" stroke="#BFBFBF" stroke-width="22.9167" stroke-linecap="butt" stroke-linejoin="miter" stroke-miterlimit="8" stroke-opacity="1" fill="#BFBFBF" fill-rule="evenodd" fill-opacity="1" transform="matrix(-0.993306 0.115514 0.115514 0.993306 2096.7 759.641)"/><path d="M2097.37 765.415 2144.64 822.496" stroke="#BFBFBF" stroke-width="22.9167" stroke-linecap="butt" stroke-linejoin="miter" stroke-miterlimit="8" stroke-opacity="1" fill="#BFBFBF" fill-rule="evenodd" fill-opacity="1"/><path d="M1963 211C1963 191.118 1979.34 175 1999.5 175 2019.66 175 2036 191.118 2036 211 2036 230.882 2019.66 247 1999.5 247 1979.34 247 1963 230.882 1963 211Z" fill="#FFFFFF" fill-rule="evenodd" fill-opacity="1"/><path d="M1922 664 2084.07 413 2174 414.38 2016.87 664 1922 664Z" fill="#FFFFFF" fill-rule="evenodd" fill-opacity="1"/><path d="M0 229 162.071 0 252 1.2595 94.8722 229 0 229Z" stroke="#FFFFFF" stroke-width="20.625" stroke-linecap="butt" stroke-linejoin="miter" stroke-miterlimit="8" stroke-opacity="1" fill="#BFBFBF" fill-rule="evenodd" fill-opacity="1" transform="matrix(-1 0 0 1 2184.5 422.5)"/></g></g></svg>